<svg xmlns="http://www.w3.org/2000/svg" width="45.594" height="53.386" viewBox="0 0 45.594 53.386">
  <g id="XMLID_91_" transform="translate(-22.257)">
    <path id="XMLID_92_" d="M66.436,42.864c-1.566-.641-2.235-1.492-2.17-2.762a4.233,4.233,0,0,0-1.173-3,12.987,12.987,0,0,0,0-6.877c-1.016-2.963-4.118-7.489-7.318-11.938-1.31-1.827-1.372-3.813-1.444-6.113a18.584,18.584,0,0,0-1.369-7.443A7.7,7.7,0,0,0,45.641,0a10.022,10.022,0,0,0-5.568,1.7c-3.2,2.207-2.775,7.019-2.5,10.2.038.436.074.848.1,1.2.186,3.118.017,4.762-.2,5.262a21.6,21.6,0,0,1-1.6,2.239c-.772,1.017-1.648,2.17-2.366,3.245a25.418,25.418,0,0,0-2.216,5.181,24.839,24.839,0,0,1-1.4,3.509,4.778,4.778,0,0,0-.463,3.589,3.688,3.688,0,0,0-1.183,1.5c-.476,1.015-1.441,1.561-3.448,1.947A2.658,2.658,0,0,0,22.9,40.719a3.269,3.269,0,0,0,.02,2.612,4.064,4.064,0,0,1-.269,2.945c-.093.281-.2.6-.3.949a1.711,1.711,0,0,0,.18,1.5c.758,1.159,2.97,1.568,5.247,1.836a20.226,20.226,0,0,1,4.287,1.231A20.124,20.124,0,0,0,36.258,53a4.767,4.767,0,0,0,.593.038,3.49,3.49,0,0,0,3.192-1.874,35.48,35.48,0,0,1,5.754-.679,24.988,24.988,0,0,1,5.719.588,4.6,4.6,0,0,0,1.723,1.877,4.181,4.181,0,0,0,1.938.437h0a4.674,4.674,0,0,0,3.407-1.407c1.161-1.23,4.061-2.8,6.179-3.947.473-.256.915-.5,1.3-.712a2.914,2.914,0,0,0,1.781-2.585A2.186,2.186,0,0,0,66.436,42.864ZM40.1,42.627c-.148-1.043-1.49-2.078-3.044-3.276-1.271-.98-2.711-2.09-3.108-3.03-.82-1.94-.174-5.351.953-7.107a18.046,18.046,0,0,0,1.452-3.5,12.589,12.589,0,0,1,1.516-3.463,8.836,8.836,0,0,0,1.817-4.408,5.5,5.5,0,0,0,3.246,1.765,1.913,1.913,0,0,0,.521-.071,17.538,17.538,0,0,0,3.11-1.566A13.285,13.285,0,0,1,49.2,16.642c.779,1.119,5.308,11.142,5.771,14.361a15.219,15.219,0,0,1-.215,5.477,4.029,4.029,0,0,0-.539-.039c-1.261,0-1.6.689-1.682,1.1a44.526,44.526,0,0,0-.25,5.252,10.436,10.436,0,0,1-6.075,3.8,26.3,26.3,0,0,1-3.744.3,12.649,12.649,0,0,1-1.847-.114l-1.664-1.9A2.022,2.022,0,0,0,40.1,42.627Zm2.112-31.4q-.078.034-.153.072a3.1,3.1,0,0,0-.035-.342,1.94,1.94,0,0,0-1.649-1.8,1.165,1.165,0,0,0-.178.014,1.379,1.379,0,0,0-1.019.912C39.35,9,39.96,8.209,40.682,8.209c.849,0,1.566,1.144,1.566,2.5A3.7,3.7,0,0,1,42.21,11.228Zm6.6.806a2.65,2.65,0,0,0,.12-.793,1.993,1.993,0,0,0-1.773-2.19,2.013,2.013,0,0,0-1.762,2.19q0,.123.012.247l-.151-.058a3.347,3.347,0,0,1-.168-1.053,2.432,2.432,0,0,1,2.092-2.662,2.432,2.432,0,0,1,2.092,2.662A3.135,3.135,0,0,1,48.807,12.035Zm-.851,2.857c-.017.074-.052.107-.443.311-.2.1-.443.231-.751.418l-.205.124a19.032,19.032,0,0,1-3.284,1.742c-.357.048-.577-.09-1.073-.427-.112-.076-.231-.157-.358-.238a4.206,4.206,0,0,1-1.534-1.485c.291-.225,1.014-.789,1.384-1.123a4,4,0,0,1,1.88-1.167.3.3,0,0,1,.056,0,18.707,18.707,0,0,1,2.315.826c.366.146.682.272.9.352A2.166,2.166,0,0,1,47.956,14.892Zm6.292,32.622a25.92,25.92,0,0,0,.776-5.635c-.017-.325-.046-.678-.074-1.02a9.376,9.376,0,0,1-.05-1.87.342.342,0,0,1,.053-.019c0,.817.181,2.447,1.484,3.015a3.283,3.283,0,0,0,1.319.255,5.387,5.387,0,0,0,3.348-1.234,6.09,6.09,0,0,0,.849-1.115,1.346,1.346,0,0,1,.058.526,3.767,3.767,0,0,0,1.623,3.393l.162.085c.4.208,1.451.762,1.468,1.024A.234.234,0,0,1,65.2,45a15.22,15.22,0,0,1-2.093,1.175,18.291,18.291,0,0,0-4.214,2.591,5.758,5.758,0,0,1-3.216,2.011.845.845,0,0,1-.256-.036C54.571,50.482,53.874,49.258,54.248,47.514Zm-28.9-4.546a2.374,2.374,0,0,1-.081-1.034c.053-.229,1.185-.475,1.669-.58a6.5,6.5,0,0,0,1.842-.579,3.736,3.736,0,0,0,1.255-1.683,2.615,2.615,0,0,1,.7-1.051.149.149,0,0,1,.081-.019c.495,0,1.533,1.04,2.131,1.971.152.235.433.705.758,1.25a39.944,39.944,0,0,0,3,4.6c.627.672,1.641,1.963,1.392,3.07a3.363,3.363,0,0,1-1.385,1.713,1.419,1.419,0,0,1-.308.029c-1.331,0-3.967-1.108-5.383-1.7l-.21-.088a17.062,17.062,0,0,0-3.33-.742,10.875,10.875,0,0,1-2.579-.58c-.183-.2.029-.871.216-1.459a9.466,9.466,0,0,0,.35-1.317A4.793,4.793,0,0,0,25.348,42.967Z" fill="#7d93db"/>
  </g>
</svg>
