<svg xmlns="http://www.w3.org/2000/svg" xmlns:xlink="http://www.w3.org/1999/xlink" width="63.381" height="65.729" viewBox="0 0 63.381 65.729">
  <defs>
    <clipPath id="clip-path">
      <rect id="Rectangle_4" data-name="Rectangle 4" width="63.381" height="65.729" transform="translate(9.13 -54.775)" fill="#7d93db"/>
    </clipPath>
  </defs>
  <g id="logo-laravel" transform="translate(-9.13 54.775)" clip-path="url(#clip-path)">
    <path id="Path_1" data-name="Path 1" d="M63.037,14.841a1.024,1.024,0,0,1,.035.264V28.974a1.011,1.011,0,0,1-.51.877l-11.674,6.7V49.837a1.013,1.013,0,0,1-.507.877L26.015,64.7a1.094,1.094,0,0,1-.177.073c-.023.008-.044.021-.069.028a1.023,1.023,0,0,1-.52,0c-.028-.008-.053-.023-.08-.033A1.053,1.053,0,0,1,25,64.7L.64,50.714a1.012,1.012,0,0,1-.51-.877V8.231a1.031,1.031,0,0,1,.035-.265C.173,7.936.191,7.91.2,7.881a1,1,0,0,1,.065-.157.948.948,0,0,1,.07-.09,1.031,1.031,0,0,1,.09-.118.99.99,0,0,1,.1-.076.826.826,0,0,1,.112-.087h0L12.821.36a1.019,1.019,0,0,1,1.014,0L26.017,7.353h0a1.253,1.253,0,0,1,.112.086,1.212,1.212,0,0,1,.1.076,1.174,1.174,0,0,1,.091.119.931.931,0,0,1,.068.09,1.056,1.056,0,0,1,.066.157c.01.029.028.056.036.086a1.02,1.02,0,0,1,.035.264V34.218l10.151-5.828V15.1a1.019,1.019,0,0,1,.036-.263c.009-.03.025-.057.036-.086a1.132,1.132,0,0,1,.066-.157c.019-.033.047-.059.068-.09a1.047,1.047,0,0,1,.091-.118.967.967,0,0,1,.1-.076,1.025,1.025,0,0,1,.112-.087h0L49.369,7.235a1.018,1.018,0,0,1,1.014,0l12.182,6.994a1.125,1.125,0,0,1,.114.086c.032.025.068.048.1.076a1.182,1.182,0,0,1,.091.119.77.77,0,0,1,.069.09,1,1,0,0,1,.066.157A.739.739,0,0,1,63.037,14.841Zm-2,13.548V16.856L56.779,19.3,50.89,22.685V34.218l10.154-5.828ZM48.86,49.252V37.711l-5.793,3.3L26.525,50.425V62.074ZM2.161,9.981v39.27L24.494,62.073V50.426L12.827,43.842l0,0-.005,0a1.113,1.113,0,0,1-.109-.083,1.132,1.132,0,0,1-.1-.073l0,0a.963.963,0,0,1-.084-.106,1.094,1.094,0,0,1-.076-.1v0a.806.806,0,0,1-.053-.126.748.748,0,0,1-.048-.114h0a.962.962,0,0,1-.02-.148.866.866,0,0,1-.015-.114V15.81L6.424,12.427,2.161,9.983ZM13.329,2.4,3.179,8.231l10.147,5.826L23.475,8.229,13.326,2.4Zm5.278,36.358,5.888-3.38V9.981l-4.263,2.447L14.343,15.81v25.4ZM49.876,9.28,39.727,15.106l10.149,5.826L60.023,15.1Zm-1.015,13.4L42.971,19.3l-4.263-2.447V28.389l5.888,3.38,4.264,2.448ZM25.508,48.674,40.394,40.2l7.441-4.234L37.694,30.144l-11.676,6.7L15.376,42.956Z" transform="translate(9 -54.442)" fill="#7d93db" fill-rule="evenodd"/>
  </g>
</svg>
