<svg xmlns="http://www.w3.org/2000/svg" width="177.178" height="28.311" viewBox="0 0 177.178 28.311">
  <g id="logo-tailwind" transform="translate(-0.618 -0.845)">
    <path id="Path_5" data-name="Path 5" d="M23.358,1.868q-9.1,0-11.37,9.1Q15.4,6.416,19.947,7.553c1.731.432,2.966,1.687,4.335,3.077,2.229,2.263,4.809,4.882,10.446,4.882q9.1,0,11.37-9.1-3.411,4.549-7.959,3.411C36.41,9.4,35.173,8.14,33.8,6.75,31.575,4.488,28.994,1.868,23.358,1.868ZM11.988,15.512q-9.1,0-11.37,9.1Q4.029,20.06,8.577,21.2c1.729.432,2.966,1.687,4.335,3.077,2.228,2.263,4.809,4.882,10.446,4.882q9.1,0,11.37-9.1-3.411,4.549-7.959,3.411c-1.729-.432-2.966-1.687-4.335-3.077C20.205,18.132,17.624,15.512,11.988,15.512Z" fill="#7d93db"/>
    <path id="Path_6" data-name="Path 6" d="M66.86,12.238V8.69H62.63V3.915L58.946,5.007V8.69H55.808v3.547h3.138v8.186c0,4.434,2.251,6,7.914,5.321V22.437c-2.8.136-4.23.17-4.23-2.013V12.238ZM83.008,8.69v2.422a7.069,7.069,0,0,0-5.969-2.865,8.7,8.7,0,0,0-8.493,8.971,8.716,8.716,0,0,0,8.493,8.971,7.008,7.008,0,0,0,5.969-2.9v2.456h3.684V8.69ZM77.619,22.676a5.271,5.271,0,0,1-5.389-5.458,5.39,5.39,0,1,1,10.779,0A5.271,5.271,0,0,1,77.619,22.676ZM92.829,6.132a2.354,2.354,0,1,0-2.354-2.354A2.381,2.381,0,0,0,92.829,6.132ZM90.987,25.745h3.684V8.69H90.987Zm7.961,0h3.684V.845H98.948ZM126.557,8.69l-3.343,11.768L119.666,8.69h-3.513l-3.581,11.768L109.263,8.69h-3.889l5.356,17.055h3.615l3.582-11.495,3.547,11.495h3.616L130.445,8.69ZM135,6.132a2.354,2.354,0,1,0-2.354-2.354A2.38,2.38,0,0,0,135,6.132Zm-1.842,19.613h3.684V8.69h-3.684Zm16.932-17.5a5.873,5.873,0,0,0-5.287,2.626V8.69h-3.684V25.745H144.8V16.6c0-3.479,1.91-4.912,4.332-4.912,2.32,0,3.82,1.364,3.82,3.957v10.1h3.684V15.274C156.639,10.839,153.91,8.247,150.09,8.247Zm24.023-6.379v9.244a7.071,7.071,0,0,0-5.97-2.865,8.694,8.694,0,0,0-8.493,8.971,8.716,8.716,0,0,0,8.493,8.971,7.01,7.01,0,0,0,5.97-2.9v2.456H177.8V1.869Zm-5.39,20.807a5.27,5.27,0,0,1-5.389-5.458,5.39,5.39,0,1,1,10.779,0A5.271,5.271,0,0,1,168.723,22.676Z" fill="#7d93db"/>
  </g>
</svg>
