<svg xmlns="http://www.w3.org/2000/svg" width="200.316" height="27.055" viewBox="0 0 200.316 27.055">
  <g id="logo" transform="translate(3891.595 -2)">
    <g id="Group_8" data-name="Group 8" transform="translate(-3891.595 2)">
      <text id="SLOEPEN_TENDERS" data-name="SLOEPEN&amp;TENDERS" transform="translate(36.316 19.845)" fill="#fff" font-size="17" font-family="Poppins-BoldItalic, Poppins" font-weight="700" font-style="italic" letter-spacing="0.001em"><tspan x="0" y="0">SLOEPEN&amp;TENDERS</tspan></text>
      <circle id="Ellipse_4" data-name="Ellipse 4" cx="13.528" cy="13.528" r="13.528" transform="translate(4.421)" fill="#007db5"/>
      <g id="Group_7" data-name="Group 7" transform="translate(0 7.959)">
        <g id="Group_5" data-name="Group 5" transform="translate(9.965 0)">
          <path id="Path_62" data-name="Path 62" d="M4984.5,1201.319s6.185-5.491,9.969-5.6l4.158,2.185S4989.25,1198.6,4984.5,1201.319Z" transform="translate(-4984.5 -1195.721)" fill="#fff"/>
        </g>
        <g id="Group_6" data-name="Group 6" transform="translate(0 2.708)">
          <path id="Path_63" data-name="Path 63" d="M3132.895,1707.8a.819.819,0,1,1,.818-.819.82.82,0,0,1-.818.819Zm-2.252.2a.716.716,0,1,1,.717-.716.716.716,0,0,1-.717.716Zm-21.3,5.629a35.508,35.508,0,0,1,22.549-1.333l6.343-6.77c-11.619-2.294-28.891,8.1-28.891,8.1Z" transform="translate(-3109.343 -1705.197)" fill="#fff"/>
        </g>
      </g>
    </g>
  </g>
</svg>
