<svg xmlns="http://www.w3.org/2000/svg" width="47" height="45.84" viewBox="0 0 47 45.84">
  <path id="logo-github" d="M23.666.6a23.5,23.5,0,0,0-7.429,45.8c1.174.217,1.606-.51,1.606-1.13,0-.56-.022-2.412-.032-4.375-6.538,1.422-7.917-2.773-7.917-2.773C8.824,35.4,7.284,34.679,7.284,34.679c-2.132-1.459.161-1.429.161-1.429a4.94,4.94,0,0,1,3.6,2.422c2.1,3.593,5.5,2.554,6.839,1.954a5,5,0,0,1,1.492-3.142C14.158,33.889,8.67,31.874,8.67,22.869a9.1,9.1,0,0,1,2.421-6.308,8.444,8.444,0,0,1,.228-6.219s1.973-.632,6.464,2.409a22.291,22.291,0,0,1,11.769,0c4.485-3.04,6.456-2.409,6.456-2.409a8.433,8.433,0,0,1,.23,6.219,9.077,9.077,0,0,1,2.419,6.308c0,9.026-5.5,11.013-10.731,11.6a5.617,5.617,0,0,1,1.594,4.352c0,3.144-.027,5.675-.027,6.449,0,.625.423,1.358,1.614,1.127A23.5,23.5,0,0,0,23.666.6ZM8.967,34.073c-.052.117-.235.152-.4.072s-.266-.236-.211-.353.235-.154.4-.073S9.026,33.956,8.967,34.073ZM10.123,35.1c-.112.1-.331.056-.48-.109a.359.359,0,0,1-.069-.488c.116-.1.328-.055.482.109S10.24,35,10.123,35.1Zm.793,1.32c-.144.1-.379.006-.525-.2s-.144-.46,0-.56.378-.01.525.2S11.063,36.322,10.916,36.424Zm1.341,1.528c-.129.142-.4.1-.6-.09a.452.452,0,0,1-.133-.6c.13-.142.406-.1.609.09S12.395,37.812,12.257,37.953Zm1.733.516c-.057.184-.321.268-.587.189s-.44-.3-.386-.482.321-.272.589-.189S14.046,38.282,13.991,38.469Zm1.973.219c.007.194-.219.355-.5.358s-.508-.151-.511-.341.221-.355.5-.36S15.963,38.495,15.963,38.688Zm1.938-.074c.033.189-.161.383-.438.435s-.525-.067-.56-.255.164-.388.436-.438S17.866,38.421,17.9,38.613Z" transform="translate(-0.166 -0.597)" fill="#7d93db"/>
</svg>
