<svg xmlns="http://www.w3.org/2000/svg" width="64.604" height="44.752" viewBox="0 0 64.604 44.752">
  <g id="logo-docker" transform="translate(-0.17 -0.442)">
    <path id="Path_2" data-name="Path 2" d="M36.434,17.948h0Zm-7.966,0h0Zm-7.807,0h0Zm-7.807,0h0Zm-7.966,0h0Zm7.966-7.329h0Zm7.807,0h0Zm7.807,0h0Zm0-7.329h0Z" transform="translate(0.297 0)" fill="#7d93db"/>
    <path id="Path_3" data-name="Path 3" d="M28.468,3.29H35.16m1.275,14.658h0Zm-7.966,0h0Zm-7.807,0h0Zm-7.807,0h0Zm-7.966,0h0Zm7.966-7.329h0Zm7.807,0h0Zm7.807,0h0Z" transform="translate(0.297 0)" fill="none" stroke="#7d93db" stroke-width="5.696"/>
    <path id="Path_4" data-name="Path 4" d="M64.773,17.918s-2.868-2.709-8.763-1.753c-.637-4.621-5.577-7.329-5.577-7.329s-4.621,5.577-1.275,11.79a10.685,10.685,0,0,1-4.939,1.115H.4c-.8,3.027-.8,23.1,21.191,23.1,15.774,0,27.564-7.329,33.141-20.713C63.021,24.769,64.773,17.918,64.773,17.918Z" transform="translate(0 0.349)" fill="#7d93db"/>
  </g>
</svg>
