<svg id="mollie-1" xmlns="http://www.w3.org/2000/svg" width="97" height="28.658" viewBox="0 0 97 28.658">
  <path id="Path_7" data-name="Path 7" d="M818.35,241.2a9.65,9.65,0,1,0,9.65,9.65A9.66,9.66,0,0,0,818.35,241.2Zm0,14.732a5.075,5.075,0,1,1,5.075-5.075A5.082,5.082,0,0,1,818.35,255.932Z" transform="translate(-777.322 -231.841)" fill="#7d93db"/>
  <path id="Path_8" data-name="Path 8" d="M1810.111,6.018a3.009,3.009,0,1,0-3.011-3.007A3.011,3.011,0,0,0,1810.111,6.018Z" transform="translate(-1736.985)" fill="#7d93db"/>
  <path id="Path_9" data-name="Path 9" d="M21.324,240.631c-.252-.019-.493-.031-.741-.031a8.383,8.383,0,0,0-6.119,2.638A8.367,8.367,0,0,0,0,248.969v10.561H4.512V249.1a4,4,0,0,1,3.43-3.872c.132-.012.26-.019.38-.019a3.816,3.816,0,0,1,3.8,3.791v10.53h4.613V249.078a3.983,3.983,0,0,1,3.43-3.861c.132-.012.26-.019.38-.019a3.811,3.811,0,0,1,3.81,3.771v10.561h4.613V249.1a8.571,8.571,0,0,0-2.2-5.727,8.221,8.221,0,0,0-5.451-2.739Z" transform="translate(0 -231.265)" fill="#7d93db"/>
  <path id="Path_10" data-name="Path 10" d="M1374.813,11.6H1370.2V39.435h4.613Zm8.831,0h-4.613V39.435h4.613Zm8.827,9.37h-4.613V39.427h4.613Z" transform="translate(-1317.036 -11.15)" fill="#7d93db"/>
  <path id="Path_11" data-name="Path 11" d="M2034.858,249.938a9.249,9.249,0,0,0-2.677-6.511,9.032,9.032,0,0,0-6.46-2.728h-.12a9.654,9.654,0,0,0,.132,19.307h.012a9.716,9.716,0,0,0,8.307-4.734l.221-.372-3.81-1.874-.19.31a5.2,5.2,0,0,1-9.448-1.284h14.034Zm-9.32-5.048a4.956,4.956,0,0,1,4.656,3.348h-9.3A4.93,4.93,0,0,1,2025.538,244.89Z" transform="translate(-1937.858 -231.361)" fill="#7d93db"/>
</svg>
